<?xml version="1.0" encoding="UTF-8" standalone="no"?>
<svg
   xmlns:dc="http://purl.org/dc/elements/1.1/"
   xmlns:cc="http://creativecommons.org/ns#"
   xmlns:rdf="http://www.w3.org/1999/02/22-rdf-syntax-ns#"
   xmlns:svg="http://www.w3.org/2000/svg"
   xmlns="http://www.w3.org/2000/svg"
   xmlns:sodipodi="http://sodipodi.sourceforge.net/DTD/sodipodi-0.dtd"
   xmlns:inkscape="http://www.inkscape.org/namespaces/inkscape"
   height="53.436871"
   width="53.353001"
   version="1.1"
   id="svg8"
   sodipodi:docname="Bitcoin.svg"
   inkscape:version="1.0.2-2 (e86c870879, 2021-01-15)">
  <metadata
     id="metadata14">
    <rdf:RDF>
      <cc:Work
         rdf:about="">
        <dc:format>image/svg+xml</dc:format>
        <dc:type
           rdf:resource="http://purl.org/dc/dcmitype/StillImage" />
      </cc:Work>
    </rdf:RDF>
  </metadata>
  <defs
     id="defs12" />
  <sodipodi:namedview
     pagecolor="#ffffff"
     bordercolor="#666666"
     borderopacity="1"
     objecttolerance="10"
     gridtolerance="10"
     guidetolerance="10"
     inkscape:pageopacity="0"
     inkscape:pageshadow="2"
     inkscape:window-width="1600"
     inkscape:window-height="837"
     id="namedview10"
     showgrid="false"
     inkscape:zoom="5.2343751"
     inkscape:cx="-30.190587"
     inkscape:cy="37.193295"
     inkscape:window-x="-8"
     inkscape:window-y="-8"
     inkscape:window-maximized="1"
     inkscape:current-layer="svg8"
     inkscape:document-rotation="0"
     showguides="false">
    <inkscape:grid
       type="xygrid"
       id="grid1017"
       originx="-0.13731575"
       originy="-0.22158241" />
  </sodipodi:namedview>
  <circle
     style="fill:#ff2a2a;stroke-width:0;stroke-miterlimit:4;stroke-dasharray:none"
     id="path866"
     cx="43.564178"
     cy="27.909761"
     r="0" />
  <ellipse
     style="fill:#f78f1b;fill-opacity:1;stroke-width:0;stroke-miterlimit:4;stroke-dasharray:none"
     id="path993"
     cx="26.6765"
     cy="26.718435"
     rx="26.6765"
     ry="26.718435" />
  <path
     id="path993-6"
     style="fill:#ffffff;fill-opacity:1;stroke-width:0;stroke-miterlimit:4;stroke-dasharray:none"
     d="m 26.500828,6.9725 -1.399984,5.619142 -7.099919,-1.708985 -0.89999,3.654297 2.499972,0.61914 c 1.099987,0.304662 1.69998,0.937812 1.599982,1.988282 l -1.599982,6.40625 -2.299974,8.992187 c -0.399996,0.906079 -0.999989,0.900623 -1.599982,0.814453 l -2.59997,-0.621094 -1.699981,3.916016 7.099919,1.740234 -1.499983,5.685547 3.499961,0.853516 1.499982,-5.625 2.799969,0.707031 -1.499983,5.59961 3.49996,0.851562 1.499983,-5.675781 c 2.199975,0.510586 4.099953,0.500103 5.699935,0.408203 8.199907,-0.465396 9.599891,-10.927734 3.49996,-13.324219 2.299974,-0.522693 3.899956,-2.08148 4.39995,-5.023437 0.599993,-5.222398 -4.199952,-6.65639 -6.99992,-7.869141 l 1.399984,-5.621094 -3.49996,-0.851563 -1.399984,5.470704 -2.799969,-0.644531 1.399985,-5.507813 z m 1.199987,10.404298 c 2.399972,0.783609 8.099908,1.193862 7.299917,5.412109 -1.299986,3.947444 -6.399928,1.863139 -9.099897,1.419922 z m -2.69997,10.279296 c 1.299986,0.677971 9.69989,0.962606 8.899899,6.15625 -1.499983,4.310521 -7.699912,1.978051 -10.799877,1.376954 z" />
</svg>
