<?xml version="1.0" encoding="UTF-8" standalone="no"?>
<svg
   xmlns:dc="http://purl.org/dc/elements/1.1/"
   xmlns:cc="http://creativecommons.org/ns#"
   xmlns:rdf="http://www.w3.org/1999/02/22-rdf-syntax-ns#"
   xmlns:svg="http://www.w3.org/2000/svg"
   xmlns="http://www.w3.org/2000/svg"
   xmlns:sodipodi="http://sodipodi.sourceforge.net/DTD/sodipodi-0.dtd"
   xmlns:inkscape="http://www.inkscape.org/namespaces/inkscape"
   width="199.12733mm"
   height="199.12733mm"
   viewBox="0 0 199.12733 199.12733"
   version="1.1"
   id="svg8"
   inkscape:version="1.0.2-2 (e86c870879, 2021-01-15)"
   sodipodi:docname="elrond-erd-2-img.svg">
  <defs
     id="defs2" />
  <sodipodi:namedview
     id="base"
     pagecolor="#ffffff"
     bordercolor="#666666"
     borderopacity="1.0"
     inkscape:pageopacity="0.0"
     inkscape:pageshadow="2"
     inkscape:zoom="0.7071068"
     inkscape:cx="417.40506"
     inkscape:cy="342.49912"
     inkscape:document-units="mm"
     inkscape:current-layer="layer1"
     inkscape:document-rotation="0"
     showgrid="false"
     inkscape:window-width="1600"
     inkscape:window-height="837"
     inkscape:window-x="-8"
     inkscape:window-y="-8"
     inkscape:window-maximized="1" />
  <metadata
     id="metadata5">
    <rdf:RDF>
      <cc:Work
         rdf:about="">
        <dc:format>image/svg+xml</dc:format>
        <dc:type
           rdf:resource="http://purl.org/dc/dcmitype/StillImage" />
        <dc:title />
      </cc:Work>
    </rdf:RDF>
  </metadata>
  <g
     inkscape:label="Layer 1"
     inkscape:groupmode="layer"
     id="layer1"
     transform="translate(59.900871,-366.66128)">
    <circle
       style="fill:#0d022c;fill-opacity:1;stroke:#dce2e5;stroke-width:0;stroke-miterlimit:4;stroke-dasharray:none"
       id="path849"
       cx="185.97168"
       cy="361.23233"
       r="0" />
    <circle
       style="fill:#ff00ff;stroke:#dce2e5;stroke-width:0;stroke-miterlimit:4;stroke-dasharray:none"
       id="path849-0"
       cx="185.93076"
       cy="361.20779"
       r="0" />
    <circle
       style="fill:#ff00ff;stroke:#dce2e5;stroke-width:0;stroke-miterlimit:4;stroke-dasharray:none"
       id="path849-4"
       cx="185.93076"
       cy="361.20779"
       r="0" />
    <circle
       style="fill:#ff00ff;stroke:#dce2e5;stroke-width:0;stroke-miterlimit:4;stroke-dasharray:none"
       id="path849-3"
       cx="185.93076"
       cy="361.20779"
       r="0" />
    <circle
       style="fill:#ff00ff;stroke:#dce2e5;stroke-width:0;stroke-miterlimit:4;stroke-dasharray:none"
       id="path849-47"
       cx="185.93076"
       cy="361.20779"
       r="0" />
    <circle
       style="fill:#ff00ff;stroke:#dce2e5;stroke-width:0;stroke-miterlimit:4;stroke-dasharray:none"
       id="path849-5"
       cx="71.539391"
       cy="356.12967"
       r="0" />
    <circle
       style="fill:#ff00ff;stroke:#dce2e5;stroke-width:0;stroke-miterlimit:4;stroke-dasharray:none"
       id="path849-59"
       cx="71.539391"
       cy="356.12967"
       r="0" />
    <circle
       style="fill:#ff00ff;stroke:#dce2e5;stroke-width:0;stroke-miterlimit:4;stroke-dasharray:none"
       id="path849-1"
       cx="71.539391"
       cy="356.12967"
       r="0" />
    <circle
       style="fill:#ff00ff;stroke:#dce2e5;stroke-width:0;stroke-miterlimit:4;stroke-dasharray:none"
       id="path849-17"
       cx="71.539391"
       cy="356.12967"
       r="0" />
    <circle
       style="fill:#ff00ff;stroke:#dce2e5;stroke-width:0;stroke-miterlimit:4;stroke-dasharray:none"
       id="path849-44"
       cx="71.539391"
       cy="356.12967"
       r="0" />
    <circle
       style="fill:#ff00ff;stroke:#dce2e5;stroke-width:0;stroke-miterlimit:4;stroke-dasharray:none"
       id="path849-14"
       cx="71.539391"
       cy="356.12967"
       r="0" />
    <circle
       style="fill:#ff00ff;stroke:#dce2e5;stroke-width:0;stroke-miterlimit:4;stroke-dasharray:none"
       id="path849-50"
       cx="185.97168"
       cy="361.23233"
       r="0" />
    <circle
       style="fill:#ff00ff;stroke:#dce2e5;stroke-width:0;stroke-miterlimit:4;stroke-dasharray:none"
       id="path849-477"
       cx="185.97168"
       cy="361.23233"
       r="0" />
    <circle
       style="fill:#ffffff;fill-opacity:1;stroke:#00ff00;stroke-width:0;stroke-miterlimit:4;stroke-dasharray:none;stroke-opacity:1"
       id="path1050"
       cx="39.662796"
       cy="466.22495"
       r="99.504471" />
    <path
       id="path1093"
       style="fill:#0d022c;fill-opacity:1;stroke:#dce2e5;stroke-width:0;stroke-miterlimit:4;stroke-dasharray:none"
       d="m 39.70181,395.5095 c -14.918555,-0.0358 -30.2160489,4.40287 -44.1709464,14.22719 l 17.2289234,15.83687 c 18.07651,-9.81453 36.061755,-9.75335 53.957428,0.0427 L 83.981278,409.73723 C 71.034747,400.65638 55.582856,395.54767 39.70181,395.5095 Z m -61.875807,2.30244 a 12.213982,11.019149 0 0 0 -12.214242,11.01904 12.213982,11.019149 0 0 0 12.214242,11.01904 12.213982,11.019149 0 0 0 12.2137247,-11.01904 12.213982,11.019149 0 0 0 -12.2137247,-11.01904 z m 124.038417,0.1804 a 12.022176,11.019149 0 0 0 -11.955338,11.01904 12.022176,11.019149 0 0 0 12.021998,11.01903 12.022176,11.019149 0 0 0 12.02201,-11.01903 12.022176,11.019149 0 0 0 -12.02201,-11.01904 12.022176,11.019149 0 0 0 -0.0667,0 z M -8.415148,419.10763 a 2.8525568,2.6102327 0 0 0 -2.852539,2.61039 2.8525568,2.6102327 0 0 0 2.852539,2.61039 2.8525568,2.6102327 0 0 0 2.852539,-2.61039 2.8525568,2.6102327 0 0 0 -2.852539,-2.61039 z m 96.540359,0.1505 a 2.8525568,2.6102327 0 0 0 -2.852539,2.61039 2.8525568,2.6102327 0 0 0 2.852539,2.60986 2.8525568,2.6102327 0 0 0 2.852539,-2.60986 2.8525568,2.6102327 0 0 0 -2.852539,-2.61039 z m -109.988116,6.17079 c -24.151751,28.97408 -16.497693,62.80077 0.03617,81.29357 l 17.2330553,-15.83526 c -9.6130023,-13.33762 -12.2352853,-31.98539 -0.07493,-49.62304 z m 123.013675,0.0203 -17.194297,15.83527 c 12.160356,17.63765 9.538073,36.28542 -0.07493,49.62303 l 17.233047,15.83474 c 16.53388,-18.49281 24.18793,-52.31896 0.0362,-81.29304 z m -101.53488529,1.06583 a 2.8525568,2.6102327 0 0 0 -2.85253631,2.61039 2.8525568,2.6102327 0 0 0 2.85253631,2.61039 2.8525568,2.6102327 0 0 0 2.85254169,-2.61039 2.8525568,2.6102327 0 0 0 -2.85254169,-2.61039 z m 80.47674329,0.0966 a 2.8525568,2.6102327 0 0 0 -2.852539,2.60986 2.8525568,2.6102327 0 0 0 2.852539,2.61039 2.8525568,2.6102327 0 0 0 2.852539,-2.61039 2.8525568,2.6102327 0 0 0 -2.852539,-2.60986 z m -72.4358892,7.3076 a 2.8525568,2.6102327 0 0 0 -2.852539,2.61039 2.8525568,2.6102327 0 0 0 2.852539,2.60986 2.8525568,2.6102327 0 0 0 2.8525392,-2.60986 2.8525568,2.6102327 0 0 0 -2.8525392,-2.61039 z m 64.4213902,0.0502 a 2.8525568,2.6102327 0 0 0 -2.852539,2.61039 2.8525568,2.6102327 0 0 0 2.852539,2.60986 2.8525568,2.6102327 0 0 0 2.852539,-2.60986 2.8525568,2.6102327 0 0 0 -2.852539,-2.61039 z m -56.33041,7.35403 a 2.8525568,2.6102327 0 0 0 -2.806031,2.60986 2.8525568,2.6102327 0 0 0 2.852539,2.61039 2.8525568,2.6102327 0 0 0 2.852539,-2.61039 2.8525568,2.6102327 0 0 0 -2.852539,-2.60986 2.8525568,2.6102327 0 0 0 -0.04651,0 z m 48.247183,0.0747 a 2.8525568,2.6102327 0 0 0 -2.85254,2.60986 2.8525568,2.6102327 0 0 0 2.85254,2.61039 2.8525568,2.6102327 0 0 0 2.852539,-2.61039 2.8525568,2.6102327 0 0 0 -2.852539,-2.60986 z m -40.159824,7.32895 a 2.8525568,2.6102327 0 0 0 -2.852539,2.61039 2.8525568,2.6102327 0 0 0 2.852539,2.61039 2.8525568,2.6102327 0 0 0 2.852539,-2.61039 2.8525568,2.6102327 0 0 0 -2.852539,-2.61039 z m 32.07608,0.0288 a 2.8525568,2.6102327 0 0 0 -2.852539,2.61039 2.8525568,2.6102327 0 0 0 2.852539,2.60985 2.8525568,2.6102327 0 0 0 2.852539,-2.60985 2.8525568,2.6102327 0 0 0 -2.852539,-2.61039 z m -24.115325,7.26543 a 2.8525568,2.6102327 0 0 0 -2.806028,2.60986 2.8525568,2.6102327 0 0 0 2.852539,2.61039 2.8525568,2.6102327 0 0 0 2.852539,-2.61039 2.8525568,2.6102327 0 0 0 -2.852539,-2.60986 2.8525568,2.6102327 0 0 0 -0.04651,0 z m 16.100827,0.16332 a 2.8525568,2.6102327 0 0 0 -2.85254,2.60986 2.8525568,2.6102327 0 0 0 2.85254,2.61039 2.8525568,2.6102327 0 0 0 2.852539,-2.61039 2.8525568,2.6102327 0 0 0 -2.852539,-2.60986 z m -8.123018,7.35083 a 2.8525568,2.6102327 0 0 0 -2.806547,2.60986 2.8525568,2.6102327 0 0 0 2.852539,2.61039 2.8525568,2.6102327 0 0 0 2.852539,-2.61039 2.8525568,2.6102327 0 0 0 -2.852539,-2.60986 2.8525568,2.6102327 0 0 0 -0.04599,0 z m -8.030517,7.35029 a 2.8525568,2.6102327 0 0 0 -2.852539,2.6104 2.8525568,2.6102327 0 0 0 2.852539,2.61039 2.8525568,2.6102327 0 0 0 2.852539,-2.61039 2.8525568,2.6102327 0 0 0 -2.852539,-2.6104 z m 16.164904,0.0608 a 2.8525568,2.6102327 0 0 0 -2.806031,2.60986 2.8525568,2.6102327 0 0 0 2.852539,2.61038 2.8525568,2.6102327 0 0 0 2.852539,-2.61038 2.8525568,2.6102327 0 0 0 -2.852539,-2.60986 2.8525568,2.6102327 0 0 0 -0.04651,0 z m -24.19749,7.29265 a 2.8525568,2.6102327 0 0 0 -2.853055,2.61039 2.8525568,2.6102327 0 0 0 2.853055,2.61039 2.8525568,2.6102327 0 0 0 2.852539,-2.61039 2.8525568,2.6102327 0 0 0 -2.852539,-2.61039 z m 32.276584,0.0603 a 2.8525568,2.6102327 0 0 0 -2.852539,2.61039 2.8525568,2.6102327 0 0 0 2.852539,2.61039 2.8525568,2.6102327 0 0 0 2.852539,-2.61039 2.8525568,2.6102327 0 0 0 -2.852539,-2.61039 z m -40.291599,7.29746 a 2.8525568,2.6102327 0 0 0 -2.852539,2.61039 2.8525568,2.6102327 0 0 0 2.852539,2.61039 2.8525568,2.6102327 0 0 0 2.852539,-2.61039 2.8525568,2.6102327 0 0 0 -2.852539,-2.61039 z m 48.260103,0.0608 a 2.8525568,2.6102327 0 0 0 -2.806547,2.60985 2.8525568,2.6102327 0 0 0 2.852539,2.61039 2.8525568,2.6102327 0 0 0 2.852539,-2.61039 2.8525568,2.6102327 0 0 0 -2.852539,-2.60985 2.8525568,2.6102327 0 0 0 -0.04599,0 z m -56.3433302,7.3679 a 2.8525568,2.6102327 0 0 0 -2.8525391,2.61039 2.8525568,2.6102327 0 0 0 2.8525391,2.61039 2.8525568,2.6102327 0 0 0 2.8525392,-2.61039 2.8525568,2.6102327 0 0 0 -2.8525392,-2.61039 z m 64.4725492,0.0603 a 2.8525568,2.6102327 0 0 0 -2.852539,2.61039 2.8525568,2.6102327 0 0 0 2.852539,2.61039 2.8525568,2.6102327 0 0 0 2.852539,-2.61039 2.8525568,2.6102327 0 0 0 -2.852539,-2.61039 z M -0.47093037,500.384 a 2.8525568,2.6102327 0 0 0 -2.85253903,2.60986 2.8525568,2.6102327 0 0 0 2.85253903,2.61039 2.8525568,2.6102327 0 0 0 2.85253907,-2.61039 2.8525568,2.6102327 0 0 0 -2.85253907,-2.60986 z m 80.59301437,0.0603 a 2.8525568,2.6102327 0 0 0 -2.806031,2.60985 2.8525568,2.6102327 0 0 0 2.852539,2.61039 2.8525568,2.6102327 0 0 0 2.852539,-2.61039 2.8525568,2.6102327 0 0 0 -2.852539,-2.60985 2.8525568,2.6102327 0 0 0 -0.04651,0 z m -13.357326,6.3341 c -17.951198,9.80166 -35.992776,9.8629 -54.125378,0.0427 l -17.2821492,15.84607 c 28.8995012,20.29417 63.5384862,17.62097 88.7248162,-5.4e-4 z m -75.2507032,1.0338 a 2.8525568,2.6102327 0 0 0 -2.8525388,2.61039 2.8525568,2.6102327 0 0 0 2.8525388,2.61039 2.8525568,2.6102327 0 0 0 2.852539,-2.61039 2.8525568,2.6102327 0 0 0 -2.852539,-2.61039 z m 96.6690332,0.0603 a 2.8525568,2.6102327 0 0 0 -2.852539,2.61039 2.8525568,2.6102327 0 0 0 2.852539,2.61039 2.8525568,2.6102327 0 0 0 2.852539,-2.61039 2.8525568,2.6102327 0 0 0 -2.852539,-2.61039 z m -110.286806,3.97243 a 12.022176,11.019149 0 0 0 -11.955859,11.01904 12.022176,11.019149 0 0 0 12.022521,11.01904 12.022176,11.019149 0 0 0 12.022004,-11.01904 12.022176,11.019149 0 0 0 -12.022004,-11.01904 12.022176,11.019149 0 0 0 -0.06666,0 z m 123.989328,0 a 12.022176,11.019149 0 0 0 -11.955856,11.01904 12.022176,11.019149 0 0 0 12.022516,11.01904 12.022176,11.019149 0 0 0 12.02201,-11.01904 12.022176,11.019149 0 0 0 -12.02201,-11.01904 12.022176,11.019149 0 0 0 -0.0667,0 z" />
  </g>
</svg>
