<?xml version="1.0" encoding="UTF-8" standalone="no"?>
<svg
   xmlns:dc="http://purl.org/dc/elements/1.1/"
   xmlns:cc="http://creativecommons.org/ns#"
   xmlns:rdf="http://www.w3.org/1999/02/22-rdf-syntax-ns#"
   xmlns:svg="http://www.w3.org/2000/svg"
   xmlns="http://www.w3.org/2000/svg"
   xmlns:sodipodi="http://sodipodi.sourceforge.net/DTD/sodipodi-0.dtd"
   xmlns:inkscape="http://www.inkscape.org/namespaces/inkscape"
   width="80.399002mm"
   height="80.399002mm"
   viewBox="0 0 80.399002 80.399002"
   version="1.1"
   id="svg8"
   inkscape:version="1.0.2-2 (e86c870879, 2021-01-15)"
   sodipodi:docname="polkadot.svg">
  <defs
     id="defs2" />
  <sodipodi:namedview
     id="base"
     pagecolor="#ffffff"
     bordercolor="#666666"
     borderopacity="1.0"
     inkscape:pageopacity="0.0"
     inkscape:pageshadow="2"
     inkscape:zoom="0.98994949"
     inkscape:cx="41.563681"
     inkscape:cy="148.52902"
     inkscape:document-units="mm"
     inkscape:current-layer="layer1"
     inkscape:document-rotation="0"
     showgrid="false"
     inkscape:window-width="1584"
     inkscape:window-height="860"
     inkscape:window-x="0"
     inkscape:window-y="0"
     inkscape:window-maximized="0" />
  <metadata
     id="metadata5">
    <rdf:RDF>
      <cc:Work
         rdf:about="">
        <dc:format>image/svg+xml</dc:format>
        <dc:type
           rdf:resource="http://purl.org/dc/dcmitype/StillImage" />
        <dc:title></dc:title>
      </cc:Work>
    </rdf:RDF>
  </metadata>
  <g
     inkscape:label="Layer 1"
     inkscape:groupmode="layer"
     id="layer1"
     transform="translate(217.13882,14.140339)">
    <circle
       style="fill:#ffffff;stroke:#00ff00;stroke-width:0"
       id="path847"
       cx="-176.93932"
       cy="26.059162"
       r="40.199501" />
    <g
       id="g855"
       transform="matrix(1.0000007,0,0,0.99999697,88.71299,-10.567295)">
      <g
         id="g858"
         transform="translate(14.165285,13.898015)">
        <g
           id="g863">
          <circle
             style="fill:#e6007a;fill-opacity:1;stroke:#00ff00;stroke-width:0"
             id="path849"
             cx="-278.94644"
             cy="48.660389"
             r="3.8742559" />
          <path
             style="fill:#1e1e1e;fill-opacity:1;stroke:#ff00ff;stroke-width:0;stroke-linecap:butt;stroke-linejoin:miter;stroke-miterlimit:4;stroke-dasharray:none;stroke-opacity:1"
             d="m -287.80524,14.39853 -7.11068,33.261905 c -1.02999,4.471549 4.76193,5.487978 5.68692,1.523804 l 1.29765,-5.960938 c 1.52044,-3.422954 3.26704,-4.660885 6.85881,-5.283941 8.28886,-0.537159 11.508,-1.670628 16.92625,-6.744513 24.01378,-31.41583208 -25.44081,-55.567884 -37.02586,-22.2338844 -1.26644,3.6439744 -0.93233,8.3655994 0.19471,13.9331504 2.71424,4.115558 6.37797,0.671344 5.95235,-1.594928 -1.20421,-4.145645 -1.24117,-7.309886 -0.58161,-9.685225 5.20797,-18.7559072 30.54239,-14.0687442 31.95516,1.121508 0.45189,4.858849 -0.16081,10.25337 -5.99737,15.666326 -2.28712,2.121127 -5.63556,3.601298 -10.43245,3.549733 0,0 -4.27908,0.184368 -5.47965,0.648919 l 3.50959,-17.407036 c 0.058,-2.414903 -4.225,-4.349172 -5.75382,-0.79488 z"
             id="path851"
             sodipodi:nodetypes="ccccccsccssssccc" />
        </g>
      </g>
    </g>
  </g>
</svg>
