<?xml version="1.0" encoding="UTF-8" standalone="no"?>
<svg
   xmlns:dc="http://purl.org/dc/elements/1.1/"
   xmlns:cc="http://creativecommons.org/ns#"
   xmlns:rdf="http://www.w3.org/1999/02/22-rdf-syntax-ns#"
   xmlns:svg="http://www.w3.org/2000/svg"
   xmlns="http://www.w3.org/2000/svg"
   xmlns:sodipodi="http://sodipodi.sourceforge.net/DTD/sodipodi-0.dtd"
   xmlns:inkscape="http://www.inkscape.org/namespaces/inkscape"
   width="213.74966mm"
   height="218.23807mm"
   viewBox="0 0 213.74966 218.23807"
   version="1.1"
   id="svg8"
   sodipodi:docname="webchain-img.svg"
   inkscape:version="1.0.2-2 (e86c870879, 2021-01-15)">
  <defs
     id="defs2" />
  <sodipodi:namedview
     id="base"
     pagecolor="#ffffff"
     bordercolor="#666666"
     borderopacity="1.0"
     inkscape:pageopacity="0.0"
     inkscape:pageshadow="2"
     inkscape:zoom="0.35"
     inkscape:cx="13.033052"
     inkscape:cy="512.74369"
     inkscape:document-units="mm"
     inkscape:current-layer="layer1"
     inkscape:document-rotation="0"
     showgrid="false"
     inkscape:window-width="1600"
     inkscape:window-height="837"
     inkscape:window-x="-8"
     inkscape:window-y="-8"
     inkscape:window-maximized="1" />
  <metadata
     id="metadata5">
    <rdf:RDF>
      <cc:Work
         rdf:about="">
        <dc:format>image/svg+xml</dc:format>
        <dc:type
           rdf:resource="http://purl.org/dc/dcmitype/StillImage" />
        <dc:title />
      </cc:Work>
    </rdf:RDF>
  </metadata>
  <g
     inkscape:label="Layer 1"
     inkscape:groupmode="layer"
     id="layer1"
     transform="translate(241.44114,113.89762)">
    <ellipse
       style="fill:#ffffff;stroke:none;stroke-width:0"
       id="path837"
       cx="-134.7572"
       cy="-5.4427042"
       rx="106.375"
       ry="108.119" />
    <ellipse
       style="fill:none;stroke:#cbb082;stroke-width:2.6;stroke-miterlimit:4;stroke-dasharray:none;stroke-opacity:1"
       id="path847"
       cx="-134.56631"
       cy="-4.7785859"
       rx="105.57483"
       ry="107.81903" />
    <ellipse
       style="fill:none;stroke:#cbb082;stroke-width:1.2;stroke-miterlimit:4;stroke-dasharray:none;stroke-opacity:1"
       id="path847-6"
       cx="-134.34683"
       cy="-4.9783311"
       rx="99.280296"
       ry="101.13486" />
    <ellipse
       style="fill:#cbb082;fill-opacity:1;stroke:#cbb082;stroke-width:0;stroke-miterlimit:4;stroke-dasharray:none;stroke-opacity:1"
       id="path847-6-4"
       cx="-134.47554"
       cy="-4.8477387"
       rx="96.674721"
       ry="98.752258" />
    <g
       id="g905"
       transform="matrix(0.99999774,0,0,0.99871117,-423.91786,-282.42086)">
      <path
         style="fill:#ffffff;stroke:#000000;stroke-width:0;stroke-linecap:butt;stroke-linejoin:miter;stroke-miterlimit:4;stroke-dasharray:none;stroke-opacity:1"
         d="m 208.30319,315.17759 24.10492,-76.01316 28.46633,-0.0473 -1.9905,53.96056 h 0.58466 l 26.32603,-54.02185 h 28.39741 l -15.61856,76.23862 h -19.48532 l 12.08529,-57.57987 -0.41762,-0.53454 -29.5861,58.06385 h -15.71608 l 0.61806,-57.46249 -0.49278,-0.008 -17.69472,57.42359 z"
         id="path889" />
      <g
         id="g900">
        <path
           id="path891"
           style="fill:#ffffff;stroke:#000000;stroke-width:0;stroke-linecap:butt;stroke-linejoin:miter;stroke-miterlimit:4;stroke-dasharray:none;stroke-opacity:1"
           d="m 1316.9824,975.16992 c -21.3103,-0.005 -42.895,6.29597 -64.6465,16.4375 -79.9482,41.12248 -100.5259,157.16888 -50.7539,189.41988 21.5992,18.7516 80.5072,24.3474 148.7071,3.9766 l 22.3886,-52.1016 c -31.0302,8.1901 -144.7543,55.7072 -131.3379,-28.6171 h 148.125 c 15.9239,-46.3344 16.188,-86.2828 -16.7871,-112.67778 -18.3026,-11.51886 -36.892,-16.43298 -55.6953,-16.4375 z m -10.5176,44.17578 c 6.7235,-0.026 13.6589,1.301 20.125,4.8848 8.7305,6.635 13.4609,19.358 10.0313,37.4394 h -83.5273 c 5.5565,-15.119 12.424,-29.4543 29.9257,-37.4394 6.5048,-2.5812 14.8009,-4.8512 23.4453,-4.8848 z"
           transform="scale(0.26458333)" />
      </g>
    </g>
  </g>
</svg>
